<svg width="256" height="19" viewBox="0 0 256 19" fill="none" xmlns="http://www.w3.org/2000/svg">
<path d="M8.68 2.46C8.74667 2.24667 8.95333 2.06 9.3 1.9C9.64667 1.72667 9.97333 1.64 10.28 1.64C10.4533 1.64 10.58 1.67333 10.66 1.74C10.7533 1.80667 10.78 1.9 10.74 2.02L9.58 6.08C9.51333 6.30667 9.30667 6.50667 8.96 6.68C8.62667 6.85333 8.30667 6.94 8 6.94C7.82667 6.94 7.69333 6.90667 7.6 6.84C7.52 6.76 7.49333 6.64667 7.52 6.5C7.61333 6.03333 7.66 5.61333 7.66 5.24C7.66 4.48 7.48667 4.06667 7.14 4C6.99333 3.96 6.8 4.1 6.56 4.42C6.33333 4.72667 6.07333 5.10667 5.78 5.56C4.76667 7.02667 3.98 8.74667 3.42 10.72C3.23333 11.4 3.08667 12.0067 2.98 12.54C2.87333 13.0733 2.82 13.6 2.82 14.12C2.82 14.6533 2.88667 15.1267 3.02 15.54C3.15333 15.9667 3.37333 16.3467 3.68 16.68C3.98667 17 4.34 17.16 4.74 17.16C5.12667 17.16 5.5 17.0267 5.86 16.76C6.22 16.4933 6.6 16.14 7 15.7L6.88 15.5C6.84 15.4333 6.82 15.3733 6.82 15.32C6.82 15.12 6.98 14.9333 7.3 14.76C7.62 14.5733 7.94 14.48 8.26 14.48C8.56667 14.48 8.78667 14.5733 8.92 14.76L9.18 15.16C9.19333 15.1867 9.2 15.2267 9.2 15.28C9.2 15.3467 9.18 15.42 9.14 15.5C9.1 15.5667 9.06 15.6267 9.02 15.68C8.39333 16.48 7.62667 17.1733 6.72 17.76C5.82667 18.3467 4.94 18.64 4.06 18.64C3.38 18.64 2.75333 18.44 2.18 18.04C1.19333 17.3333 0.7 16.2133 0.7 14.68C0.7 13.7333 0.906667 12.5267 1.32 11.06C1.77333 9.42 2.38667 7.88 3.16 6.44C3.93333 4.98667 4.87333 3.9 5.98 3.18C6.60667 2.76667 7.21333 2.56 7.8 2.56C8.06667 2.56 8.33333 2.62 8.6 2.74L8.68 2.46ZM24.1654 2.54C24.2454 2.35333 24.4454 2.19333 24.7654 2.06C25.0854 1.91333 25.3854 1.84 25.6654 1.84C26.0387 1.84 26.2254 1.96 26.2254 2.2C26.2254 2.29333 26.212 2.36667 26.1854 2.42C25.3054 4.62 24.5387 6.88667 23.8854 9.22L24.4254 9.2C24.8654 9.18667 25.0854 9.28 25.0854 9.48C25.0854 9.66667 24.9254 9.88 24.6054 10.12C24.2987 10.36 24.012 10.4933 23.7454 10.52L23.5254 10.56C22.952 12.7733 22.4787 15.14 22.1054 17.66C22.0654 17.9133 21.8654 18.1333 21.5054 18.32C21.1454 18.5067 20.792 18.6 20.4454 18.6C20.2587 18.6 20.112 18.56 20.0054 18.48C19.8987 18.4 19.852 18.2867 19.8654 18.14C20.212 15.66 20.692 13.24 21.3054 10.88C20.012 11.12 18.7187 11.44 17.4254 11.84C17.1187 13.28 16.7987 15.08 16.4654 17.24C16.4254 17.4933 16.2254 17.7133 15.8654 17.9C15.5054 18.0867 15.152 18.18 14.8054 18.18C14.6054 18.18 14.452 18.14 14.3454 18.06C14.2387 17.98 14.1987 17.86 14.2254 17.7C14.5054 15.82 14.812 14.0667 15.1454 12.44C14.8787 12.3733 14.7454 12.2267 14.7454 12C14.7454 11.8667 14.7987 11.7333 14.9054 11.6C15.0254 11.4667 15.192 11.3467 15.4054 11.24C16.1254 8.14667 17.012 5.35333 18.0654 2.86C18.1454 2.67333 18.3454 2.51333 18.6654 2.38C18.9854 2.23333 19.292 2.16 19.5854 2.16C19.9587 2.16 20.1454 2.28 20.1454 2.52C20.1454 2.61333 20.132 2.68667 20.1054 2.74C19.212 5.02 18.4254 7.56 17.7454 10.36C19.012 9.94667 20.332 9.64 21.7054 9.44C22.4254 6.94667 23.2454 4.64667 24.1654 2.54ZM40.7842 2.56C41.0908 2.61333 41.2442 2.72667 41.2442 2.9C41.2442 3.03333 41.1508 3.18667 40.9642 3.36C40.7775 3.52 40.5575 3.65333 40.3042 3.76C40.0642 3.86667 39.8575 3.90667 39.6842 3.88C39.0442 3.78667 38.3642 3.74 37.6442 3.74C36.3775 3.74 34.9308 3.92 33.3042 4.28C32.8108 5.93333 32.3242 7.74667 31.8442 9.72C33.3908 9.37333 34.7508 9.2 35.9242 9.2C36.2575 9.2 36.5108 9.20667 36.6842 9.22C36.9642 9.23333 37.1042 9.36 37.1042 9.6C37.1042 9.86667 36.9575 10.08 36.6642 10.24C36.3842 10.4 36.0908 10.4867 35.7842 10.5C34.3575 10.62 32.9375 10.82 31.5242 11.1C31.1375 12.7267 30.7708 14.5 30.4242 16.42C31.8908 16.3533 33.2175 16.32 34.4042 16.32C35.9775 16.32 37.4242 16.3933 38.7442 16.54C39.0242 16.58 39.1642 16.7133 39.1642 16.94C39.1642 17.06 39.1242 17.1933 39.0442 17.34C38.9108 17.54 38.7042 17.6867 38.4242 17.78C38.1575 17.86 37.8908 17.8867 37.6242 17.86C36.8508 17.7933 35.9242 17.76 34.8442 17.76C33.9508 17.76 33.0508 17.78 32.1442 17.82C31.2375 17.8467 30.5575 17.86 30.1042 17.86C29.9708 18.0467 29.7442 18.2067 29.4242 18.34C29.1175 18.4733 28.8308 18.54 28.5642 18.54C28.3642 18.54 28.2108 18.5 28.1042 18.42C27.9975 18.34 27.9575 18.2267 27.9842 18.08C27.9842 18.04 27.9975 17.9667 28.0242 17.86H27.9842C27.5442 17.86 27.3242 17.7467 27.3242 17.52C27.3242 17.3733 27.4175 17.2133 27.6042 17.04C27.7908 16.8667 28.0042 16.7267 28.2442 16.62C28.6575 14.3667 29.0842 12.2867 29.5242 10.38C29.9642 8.46 30.4775 6.61333 31.0642 4.84L30.9042 4.86C30.7442 4.86 30.6175 4.82 30.5242 4.74C30.4442 4.66 30.4042 4.56 30.4042 4.44C30.4042 4.28 30.4708 4.12 30.6042 3.96C30.7375 3.8 30.9175 3.68 31.1442 3.6L31.5242 3.48L31.6242 3.22C31.6908 3.02 31.8708 2.85333 32.1642 2.72C32.4575 2.57333 32.7508 2.5 33.0442 2.5C33.4308 2.5 33.6442 2.62667 33.6842 2.88C35.2708 2.50667 36.7442 2.32 38.1042 2.32C39.0108 2.32 39.9042 2.4 40.7842 2.56ZM51.0823 2.46C51.149 2.24667 51.3557 2.06 51.7023 1.9C52.049 1.72667 52.3757 1.64 52.6823 1.64C52.8557 1.64 52.9823 1.67333 53.0623 1.74C53.1557 1.80667 53.1823 1.9 53.1423 2.02L51.9823 6.08C51.9157 6.30667 51.709 6.50667 51.3623 6.68C51.029 6.85333 50.709 6.94 50.4023 6.94C50.229 6.94 50.0957 6.90667 50.0023 6.84C49.9223 6.76 49.8957 6.64667 49.9223 6.5C50.0157 6.03333 50.0623 5.61333 50.0623 5.24C50.0623 4.48 49.889 4.06667 49.5423 4C49.3957 3.96 49.2023 4.1 48.9623 4.42C48.7357 4.72667 48.4757 5.10667 48.1823 5.56C47.169 7.02667 46.3823 8.74667 45.8223 10.72C45.6357 11.4 45.489 12.0067 45.3823 12.54C45.2757 13.0733 45.2223 13.6 45.2223 14.12C45.2223 14.6533 45.289 15.1267 45.4223 15.54C45.5557 15.9667 45.7757 16.3467 46.0823 16.68C46.389 17 46.7423 17.16 47.1423 17.16C47.529 17.16 47.9023 17.0267 48.2623 16.76C48.6223 16.4933 49.0023 16.14 49.4023 15.7L49.2823 15.5C49.2423 15.4333 49.2223 15.3733 49.2223 15.32C49.2223 15.12 49.3823 14.9333 49.7023 14.76C50.0223 14.5733 50.3423 14.48 50.6623 14.48C50.969 14.48 51.189 14.5733 51.3223 14.76L51.5823 15.16C51.5957 15.1867 51.6023 15.2267 51.6023 15.28C51.6023 15.3467 51.5823 15.42 51.5423 15.5C51.5023 15.5667 51.4623 15.6267 51.4223 15.68C50.7957 16.48 50.029 17.1733 49.1223 17.76C48.229 18.3467 47.3423 18.64 46.4623 18.64C45.7823 18.64 45.1557 18.44 44.5823 18.04C43.5957 17.3333 43.1023 16.2133 43.1023 14.68C43.1023 13.7333 43.309 12.5267 43.7223 11.06C44.1757 9.42 44.789 7.88 45.5623 6.44C46.3357 4.98667 47.2757 3.9 48.3823 3.18C49.009 2.76667 49.6157 2.56 50.2023 2.56C50.469 2.56 50.7357 2.62 51.0023 2.74L51.0823 2.46ZM66.4877 3.04C66.581 2.96 66.721 2.89333 66.9077 2.84C67.1077 2.78667 67.3077 2.76 67.5077 2.76C67.7077 2.76 67.8744 2.78667 68.0077 2.84C68.141 2.89333 68.2077 2.97333 68.2077 3.08C68.2077 3.17333 68.141 3.28667 68.0077 3.42L60.1277 11.08L59.8677 11.3C61.761 10.3267 63.2277 9.84 64.2677 9.84C65.2144 9.84 65.801 10.2467 66.0277 11.06C66.0944 11.3667 66.1277 11.64 66.1277 11.88C66.1277 12.2267 66.0877 12.58 66.0077 12.94C65.9277 13.2867 65.8144 13.6933 65.6677 14.16C65.4944 14.76 65.3744 15.2133 65.3077 15.52C65.241 15.8133 65.2077 16.1333 65.2077 16.48C65.2077 16.6 65.221 16.7667 65.2477 16.98C65.4477 16.9933 65.6077 17.0333 65.7277 17.1C65.861 17.1667 65.9277 17.2533 65.9277 17.36C65.9277 17.5067 65.801 17.6867 65.5477 17.9L65.0477 18.32C64.941 18.4133 64.7677 18.5067 64.5277 18.6C64.2877 18.6933 64.061 18.74 63.8477 18.74C63.541 18.74 63.341 18.62 63.2477 18.38C63.101 17.98 63.0277 17.5333 63.0277 17.04C63.0277 16.6533 63.061 16.2667 63.1277 15.88C63.2077 15.48 63.321 14.9867 63.4677 14.4C63.6544 13.7333 63.781 13.16 63.8477 12.68C63.8877 12.32 63.9077 12.12 63.9077 12.08C63.9077 11.8533 63.861 11.68 63.7677 11.56C63.6877 11.4267 63.5344 11.36 63.3077 11.36C63.041 11.36 62.721 11.4467 62.3477 11.62C61.9877 11.7933 61.7677 11.9 61.6877 11.94C61.1144 12.18 60.3744 12.54 59.4677 13.02C59.1344 14.6467 58.7877 16.18 58.4277 17.62C58.3744 17.86 58.1677 18.0667 57.8077 18.24C57.4477 18.4133 57.1077 18.5 56.7877 18.5C56.601 18.5 56.4544 18.4667 56.3477 18.4C56.2544 18.32 56.2277 18.2067 56.2677 18.06C56.321 17.8333 56.3544 17.68 56.3677 17.6C56.4477 17.2533 56.581 16.6733 56.7677 15.86C56.9544 15.0333 57.1144 14.3 57.2477 13.66C57.021 13.5667 56.9077 13.4333 56.9077 13.26C56.9077 13.06 57.0877 12.8533 57.4477 12.64C58.141 9.08 58.4877 5.86 58.4877 2.98C58.4877 2.75333 58.6544 2.54667 58.9877 2.36C59.3344 2.16 59.6744 2.06 60.0077 2.06C60.1944 2.06 60.341 2.1 60.4477 2.18C60.5677 2.26 60.6277 2.37333 60.6277 2.52C60.641 4.54667 60.4877 6.70667 60.1677 9C62.061 7.09333 64.1677 5.10667 66.4877 3.04ZM87.6497 16.06C88.263 15.5533 88.8697 14.82 89.4697 13.86C90.0697 12.9 90.563 11.86 90.9497 10.74C91.3364 9.62 91.5297 8.57333 91.5297 7.6C91.5297 6.53333 91.2564 5.65333 90.7097 4.96C90.1764 4.26667 89.323 3.85333 88.1497 3.72C87.0164 3.94667 85.8164 5.30667 84.5497 7.8C83.4697 9.93333 82.9297 11.7933 82.9297 13.38C82.9297 13.94 82.9964 14.4667 83.1297 14.96C83.303 15.6 83.5964 16.0867 84.0097 16.42C84.4364 16.7533 84.9297 16.92 85.4897 16.92C86.2364 16.92 86.9564 16.6333 87.6497 16.06ZM90.9897 2.7C91.8564 3.08667 92.503 3.70667 92.9297 4.56C93.3564 5.41333 93.5697 6.38667 93.5697 7.48C93.5697 8.17333 93.4697 8.94 93.2697 9.78C92.8297 11.54 92.083 13.1733 91.0297 14.68C89.9764 16.1867 88.703 17.2667 87.2097 17.92C86.4364 18.2533 85.6697 18.42 84.9097 18.42C83.883 18.42 82.9964 18.1333 82.2497 17.56C81.503 16.9867 81.0497 16.1667 80.8897 15.1C80.8364 14.74 80.8097 14.3467 80.8097 13.92C80.8097 12.5867 81.083 11.22 81.6297 9.82C82.1764 8.40667 82.8764 7.09333 83.7297 5.88C84.423 4.89333 85.2564 4.04 86.2297 3.32C87.2164 2.58667 88.2097 2.22 89.2097 2.22C89.8097 2.22 90.3897 2.37333 90.9497 2.68L90.9897 2.7ZM106.12 3.58C106.133 3.34 106.3 3.13333 106.62 2.96C106.953 2.77333 107.28 2.68 107.6 2.68C108.013 2.68 108.213 2.83333 108.2 3.14C107.973 7.20667 107.546 10.8533 106.92 14.08C106.786 14.7067 106.66 15.2133 106.54 15.6C106.42 15.9733 106.233 16.3333 105.98 16.68C105.726 17.0267 105.386 17.32 104.96 17.56C104.253 17.96 103.48 18.2133 102.64 18.32C101.8 18.4133 100.793 18.4533 99.6197 18.44H99.0797C98.2931 18.44 97.6864 18.3533 97.2597 18.18C96.8331 18.0067 96.6197 17.62 96.6197 17.02C96.6197 16.8867 96.6264 16.78 96.6397 16.7C96.7597 15.86 97.0131 14.6933 97.3997 13.2L97.6397 12.22C98.1331 10.2333 98.5664 8.54667 98.9397 7.16C99.3264 5.77333 99.7531 4.41333 100.22 3.08C100.286 2.88 100.466 2.71333 100.76 2.58C101.053 2.43333 101.34 2.36 101.62 2.36C101.806 2.36 101.96 2.4 102.08 2.48C102.2 2.54667 102.26 2.65333 102.26 2.8C102.26 2.84 102.246 2.91333 102.22 3.02C101.646 4.79333 100.953 7.24667 100.14 10.38C99.6997 12.1133 99.3797 13.4667 99.1797 14.44C99.0331 15.08 98.9197 15.6133 98.8397 16.04C98.8131 16.2267 98.7997 16.34 98.7997 16.38C98.7997 16.6067 98.8731 16.7533 99.0197 16.82C99.1664 16.8867 99.4331 16.9267 99.8197 16.94L100.3 16.96C100.74 17 101.226 17.02 101.76 17.02C103.093 17.02 103.946 16.76 104.32 16.24C104.546 15.92 104.706 15.5067 104.8 15C104.906 14.4933 104.993 13.8867 105.06 13.18L105.16 12.32C105.613 9.42667 105.933 6.51333 106.12 3.58ZM123.133 2.66C123.427 2.67333 123.573 2.76667 123.573 2.94C123.573 3.14 123.413 3.36667 123.093 3.62C122.787 3.86 122.513 3.98 122.273 3.98C121.127 3.98 119.853 4.01333 118.453 4.08C117.32 8.62667 116.533 12.84 116.093 16.72C116.28 16.7333 116.433 16.78 116.553 16.86C116.687 16.9267 116.753 17.02 116.753 17.14C116.753 17.3 116.633 17.4733 116.393 17.66L115.613 18.26C115.52 18.3533 115.34 18.44 115.073 18.52C114.82 18.6 114.58 18.64 114.353 18.64C113.94 18.64 113.753 18.4733 113.793 18.14C114.26 13.7533 115.113 9.14 116.353 4.3L116.333 4.22C114.813 4.35333 113.393 4.5 112.073 4.66C111.873 4.68667 111.713 4.66 111.593 4.58C111.473 4.48667 111.42 4.34667 111.433 4.16C111.447 3.97333 111.56 3.82 111.773 3.7C112 3.58 112.24 3.48667 112.493 3.42C113.773 3.04667 115.2 2.79333 116.773 2.66L116.893 2.32C116.947 2.13333 117.133 1.97333 117.453 1.84C117.773 1.69333 118.087 1.62 118.393 1.62C118.593 1.62 118.747 1.66 118.853 1.74C118.973 1.82 119.013 1.93333 118.973 2.08L118.853 2.54L119.793 2.52C120.767 2.52 121.88 2.56667 123.133 2.66ZM140.534 16.06C141.147 15.5533 141.754 14.82 142.354 13.86C142.954 12.9 143.447 11.86 143.834 10.74C144.22 9.62 144.414 8.57333 144.414 7.6C144.414 6.53333 144.14 5.65333 143.594 4.96C143.06 4.26667 142.207 3.85333 141.034 3.72C139.9 3.94667 138.7 5.30667 137.434 7.8C136.354 9.93333 135.814 11.7933 135.814 13.38C135.814 13.94 135.88 14.4667 136.014 14.96C136.187 15.6 136.48 16.0867 136.894 16.42C137.32 16.7533 137.814 16.92 138.374 16.92C139.12 16.92 139.84 16.6333 140.534 16.06ZM143.874 2.7C144.74 3.08667 145.387 3.70667 145.814 4.56C146.24 5.41333 146.454 6.38667 146.454 7.48C146.454 8.17333 146.354 8.94 146.154 9.78C145.714 11.54 144.967 13.1733 143.914 14.68C142.86 16.1867 141.587 17.2667 140.094 17.92C139.32 18.2533 138.554 18.42 137.794 18.42C136.767 18.42 135.88 18.1333 135.134 17.56C134.387 16.9867 133.934 16.1667 133.774 15.1C133.72 14.74 133.694 14.3467 133.694 13.92C133.694 12.5867 133.967 11.22 134.514 9.82C135.06 8.40667 135.76 7.09333 136.614 5.88C137.307 4.89333 138.14 4.04 139.114 3.32C140.1 2.58667 141.094 2.22 142.094 2.22C142.694 2.22 143.274 2.37333 143.834 2.68L143.874 2.7ZM161.304 2.06C161.371 2.04667 161.464 2.04 161.584 2.04C161.811 2.04 161.977 2.08667 162.084 2.18C162.204 2.26 162.264 2.36667 162.264 2.5C162.264 2.7 162.157 2.9 161.944 3.1C161.731 3.28667 161.471 3.40667 161.164 3.46L161.084 3.56C160.964 3.68 160.824 3.88667 160.664 4.18C160.411 4.64667 160.157 5.30667 159.904 6.16C159.571 7.36 159.277 8.98 159.024 11.02C158.864 12.3533 158.717 13.84 158.584 15.48C158.571 15.5733 158.564 15.72 158.564 15.92C158.537 16.3467 158.497 16.7 158.444 16.98C158.391 17.2467 158.291 17.4733 158.144 17.66C158.024 17.7933 157.811 17.9333 157.504 18.08C157.211 18.2133 156.937 18.28 156.684 18.28C156.351 18.28 156.151 18.1467 156.084 17.88C155.791 16.8933 155.437 15.4533 155.024 13.56C154.957 13.2667 154.857 12.8333 154.724 12.26C154.591 11.6867 154.471 11.1867 154.364 10.76L153.824 8.7C153.744 9.54 153.644 10.3867 153.524 11.24C153.311 12.7733 153.077 14.0533 152.824 15.08C152.584 16.1067 152.191 17.0267 151.644 17.84C151.497 18.0667 151.291 18.2533 151.024 18.4C150.771 18.5333 150.511 18.6 150.244 18.6C150.057 18.6 149.884 18.5667 149.724 18.5C149.564 18.42 149.484 18.3133 149.484 18.18C149.484 18.0867 149.511 18.0067 149.564 17.94C150.057 17.06 150.424 16.1133 150.664 15.1C150.917 14.0733 151.151 12.8067 151.364 11.3C151.671 9.04667 151.824 6.96667 151.824 5.06C151.824 4.28667 151.811 3.70667 151.784 3.32C151.771 3.06667 151.924 2.84667 152.244 2.66C152.564 2.46 152.897 2.36 153.244 2.36C153.511 2.36 153.711 2.42667 153.844 2.56C154.151 2.86667 154.384 3.21333 154.544 3.6C154.717 3.97333 154.931 4.53333 155.184 5.28C155.517 6.24 155.937 7.69333 156.444 9.64C156.537 9.97333 156.664 10.4733 156.824 11.14C156.877 10.7267 156.971 10.0933 157.104 9.24C157.317 7.96 157.544 6.86667 157.784 5.96C158.037 5.05333 158.451 4.21333 159.024 3.44C159.597 2.65333 160.357 2.19333 161.304 2.06ZM184.008 11.42C184.848 12.1533 185.268 12.9067 185.268 13.68C185.268 14.1867 185.095 14.6933 184.748 15.2C183.522 16.96 182.082 18.0467 180.428 18.46C180.002 18.5667 179.522 18.62 178.988 18.62C177.735 18.62 176.535 18.3067 175.388 17.68C174.842 17.3867 174.462 17.0067 174.248 16.54C174.035 16.0733 173.928 15.52 173.928 14.88C173.928 14.4267 173.982 13.7733 174.088 12.92C174.128 12.6933 174.315 12.58 174.648 12.58C175.022 12.58 175.402 12.7 175.788 12.94C176.175 13.18 176.348 13.4467 176.308 13.74C176.295 13.8467 176.262 14.0867 176.208 14.46C176.155 14.82 176.128 15.1533 176.128 15.46C176.128 16.1533 176.295 16.62 176.628 16.86C176.962 17.1 177.395 17.22 177.928 17.22C178.462 17.22 179.015 17.1067 179.588 16.88C180.028 16.7067 180.515 16.42 181.048 16.02C181.595 15.62 182.055 15.1667 182.428 14.66C182.815 14.1533 183.008 13.66 183.008 13.18C183.008 12.7933 182.875 12.44 182.608 12.12C182.342 11.8133 181.962 11.52 181.468 11.24C180.988 10.96 180.348 10.6333 179.548 10.26C178.562 9.79333 177.768 9.38667 177.168 9.04C176.582 8.68 176.075 8.26 175.648 7.78C175.222 7.28667 175.008 6.73333 175.008 6.12C175.008 5.84 175.042 5.59333 175.108 5.38C175.428 4.18 176.215 3.32 177.468 2.8C178.735 2.26667 180.102 2 181.568 2C182.208 2 182.768 2.04 183.248 2.12C183.728 2.2 184.128 2.37333 184.448 2.64C184.808 2.93333 184.988 3.34667 184.988 3.88C184.988 4.2 184.935 4.52 184.828 4.84C184.735 5.14667 184.588 5.56667 184.388 6.1C184.242 6.46 184.155 6.68 184.128 6.76C184.048 6.98667 183.828 7.1 183.468 7.1C183.108 7.1 182.755 7 182.408 6.8C182.062 6.6 181.888 6.37333 181.888 6.12C181.888 6.05333 181.895 6 181.908 5.96L182.208 5.1C182.342 4.72667 182.435 4.44667 182.488 4.26L182.628 3.42C180.948 3.39333 179.608 3.73333 178.608 4.44C178.208 4.70667 177.895 5.02 177.668 5.38C177.455 5.72667 177.348 6.08 177.348 6.44C177.348 7.06667 177.662 7.60667 178.288 8.06C178.742 8.38 179.242 8.68 179.788 8.96C180.348 9.24 180.688 9.41333 180.808 9.48C181.582 9.86667 182.202 10.1933 182.668 10.46C183.148 10.7267 183.595 11.0467 184.008 11.42ZM194.474 9.5C197.128 8.46 198.454 7.48667 198.454 6.58C198.454 6.06 198.128 5.66667 197.474 5.4C196.821 5.12 195.961 4.86667 194.894 4.64C194.641 4.6 194.348 4.53333 194.014 4.44L193.454 4.26C193.014 6.48667 192.668 8.44 192.414 10.12C192.894 10.0667 193.581 9.86 194.474 9.5ZM198.494 4.08C199.108 4.30667 199.574 4.6 199.894 4.96C200.228 5.32 200.394 5.71333 200.394 6.14C200.394 6.75333 200.061 7.37333 199.394 8C198.501 8.84 197.428 9.56667 196.174 10.18C194.934 10.78 193.694 11.1867 192.454 11.4C192.348 11.4267 192.268 11.44 192.214 11.44C191.881 13.6667 191.634 15.6933 191.474 17.52C191.448 17.7733 191.261 17.9933 190.914 18.18C190.568 18.3667 190.221 18.46 189.874 18.46C189.688 18.46 189.534 18.42 189.414 18.34C189.294 18.26 189.241 18.14 189.254 17.98C189.468 15.8467 189.741 13.6067 190.074 11.26C189.448 10.9933 189.134 10.52 189.134 9.84C189.134 9.54667 189.201 9.20667 189.334 8.82C189.401 8.64667 189.561 8.5 189.814 8.38C190.068 8.24667 190.328 8.16667 190.594 8.14C190.821 6.83333 191.148 5.26 191.574 3.42C190.921 2.95333 190.568 2.36 190.514 1.64C190.501 1.4 190.654 1.18667 190.974 0.999999C191.294 0.799999 191.621 0.7 191.954 0.7C192.408 0.7 192.641 0.866666 192.654 1.2C192.668 1.49333 192.781 1.76667 192.994 2.02C193.061 2.00667 193.161 2 193.294 2C193.721 2 193.908 2.14667 193.854 2.44L193.794 2.64C194.194 2.86667 194.654 3.06 195.174 3.22C195.694 3.36667 196.314 3.52 197.034 3.68C197.781 3.85333 198.268 3.98667 198.494 4.08ZM210.382 17.36C210.476 17.4133 210.522 17.4867 210.522 17.58C210.522 17.7667 210.349 17.96 210.002 18.16C209.656 18.3467 209.322 18.44 209.002 18.44C208.816 18.44 208.682 18.4067 208.602 18.34C208.536 18.2867 208.342 18.1467 208.022 17.92C207.716 17.68 207.402 17.48 207.082 17.32C206.762 17.16 206.482 17.08 206.242 17.08C206.029 17.08 205.802 17.16 205.562 17.32C205.336 17.4667 205.116 17.6333 204.902 17.82C204.689 17.9933 204.536 18.12 204.442 18.2C204.269 18.3333 204.049 18.4467 203.782 18.54C203.529 18.6333 203.296 18.68 203.082 18.68C202.896 18.68 202.749 18.6467 202.642 18.58C202.549 18.5133 202.522 18.4067 202.562 18.26L203.122 15.86C204.256 10.94 205.249 6.76667 206.102 3.34C206.156 3.11333 206.349 2.92 206.682 2.76C207.029 2.58667 207.362 2.5 207.682 2.5C207.856 2.5 207.989 2.53333 208.082 2.6C208.176 2.66667 208.202 2.76667 208.162 2.9C207.762 4.59333 207.176 7.13333 206.402 10.52L205.082 16.22C205.536 15.9933 205.969 15.8533 206.382 15.8C206.596 15.7733 206.749 15.76 206.842 15.76C207.429 15.76 207.989 15.9 208.522 16.18C209.069 16.4467 209.689 16.84 210.382 17.36ZM225.361 2.06C225.414 2.04667 225.507 2.04 225.641 2.04C225.827 2.04 225.987 2.08 226.121 2.16C226.254 2.24 226.321 2.36667 226.321 2.54C226.321 2.74 226.201 2.91333 225.961 3.06C225.734 3.20667 225.487 3.31333 225.221 3.38C224.261 3.64667 223.347 3.83333 222.481 3.94C222.281 5.92667 221.967 7.96667 221.541 10.06C221.127 12.14 220.607 14.3467 219.981 16.68C221.234 16.6533 222.167 16.6067 222.781 16.54C223.221 16.5 223.441 16.6133 223.441 16.88C223.441 17.08 223.327 17.2933 223.101 17.52C222.874 17.7333 222.634 17.8533 222.381 17.88C220.527 18.12 218.781 18.24 217.141 18.24C216.247 18.24 215.374 18.2 214.521 18.12C214.227 18.08 214.081 18 214.081 17.88C214.081 17.72 214.274 17.52 214.661 17.28C215.034 17.04 215.314 16.9133 215.501 16.9C216.274 16.8067 217.074 16.7467 217.901 16.72C218.541 14.2533 219.067 12.02 219.481 10.02C219.894 8.00667 220.194 6.03333 220.381 4.1C219.314 4.12667 218.374 4.06667 217.561 3.92C217.281 3.86667 217.141 3.77333 217.141 3.64C217.141 3.46667 217.321 3.27333 217.681 3.06C218.054 2.83333 218.341 2.71333 218.541 2.7C219.287 2.63333 220.014 2.59333 220.721 2.58L221.821 2.52H221.961C223.321 2.45333 224.454 2.3 225.361 2.06ZM236.851 2.46C236.917 2.24667 237.124 2.06 237.471 1.9C237.817 1.72667 238.144 1.64 238.451 1.64C238.624 1.64 238.751 1.67333 238.831 1.74C238.924 1.80667 238.951 1.9 238.911 2.02L237.751 6.08C237.684 6.30667 237.477 6.50667 237.131 6.68C236.797 6.85333 236.477 6.94 236.171 6.94C235.997 6.94 235.864 6.90667 235.771 6.84C235.691 6.76 235.664 6.64667 235.691 6.5C235.784 6.03333 235.831 5.61333 235.831 5.24C235.831 4.48 235.657 4.06667 235.311 4C235.164 3.96 234.971 4.1 234.731 4.42C234.504 4.72667 234.244 5.10667 233.951 5.56C232.937 7.02667 232.151 8.74667 231.591 10.72C231.404 11.4 231.257 12.0067 231.151 12.54C231.044 13.0733 230.991 13.6 230.991 14.12C230.991 14.6533 231.057 15.1267 231.191 15.54C231.324 15.9667 231.544 16.3467 231.851 16.68C232.157 17 232.511 17.16 232.911 17.16C233.297 17.16 233.671 17.0267 234.031 16.76C234.391 16.4933 234.771 16.14 235.171 15.7L235.051 15.5C235.011 15.4333 234.991 15.3733 234.991 15.32C234.991 15.12 235.151 14.9333 235.471 14.76C235.791 14.5733 236.111 14.48 236.431 14.48C236.737 14.48 236.957 14.5733 237.091 14.76L237.351 15.16C237.364 15.1867 237.371 15.2267 237.371 15.28C237.371 15.3467 237.351 15.42 237.311 15.5C237.271 15.5667 237.231 15.6267 237.191 15.68C236.564 16.48 235.797 17.1733 234.891 17.76C233.997 18.3467 233.111 18.64 232.231 18.64C231.551 18.64 230.924 18.44 230.351 18.04C229.364 17.3333 228.871 16.2133 228.871 14.68C228.871 13.7333 229.077 12.5267 229.491 11.06C229.944 9.42 230.557 7.88 231.331 6.44C232.104 4.98667 233.044 3.9 234.151 3.18C234.777 2.76667 235.384 2.56 235.971 2.56C236.237 2.56 236.504 2.62 236.771 2.74L236.851 2.46ZM255.016 2.56C255.323 2.61333 255.476 2.72667 255.476 2.9C255.476 3.03333 255.383 3.18667 255.196 3.36C255.009 3.52 254.789 3.65333 254.536 3.76C254.296 3.86667 254.089 3.90667 253.916 3.88C253.276 3.78667 252.596 3.74 251.876 3.74C250.609 3.74 249.163 3.92 247.536 4.28C247.043 5.93333 246.556 7.74667 246.076 9.72C247.623 9.37333 248.983 9.2 250.156 9.2C250.489 9.2 250.743 9.20667 250.916 9.22C251.196 9.23333 251.336 9.36 251.336 9.6C251.336 9.86667 251.189 10.08 250.896 10.24C250.616 10.4 250.323 10.4867 250.016 10.5C248.589 10.62 247.169 10.82 245.756 11.1C245.369 12.7267 245.003 14.5 244.656 16.42C246.123 16.3533 247.449 16.32 248.636 16.32C250.209 16.32 251.656 16.3933 252.976 16.54C253.256 16.58 253.396 16.7133 253.396 16.94C253.396 17.06 253.356 17.1933 253.276 17.34C253.143 17.54 252.936 17.6867 252.656 17.78C252.389 17.86 252.123 17.8867 251.856 17.86C251.083 17.7933 250.156 17.76 249.076 17.76C248.183 17.76 247.283 17.78 246.376 17.82C245.469 17.8467 244.789 17.86 244.336 17.86C244.203 18.0467 243.976 18.2067 243.656 18.34C243.349 18.4733 243.063 18.54 242.796 18.54C242.596 18.54 242.443 18.5 242.336 18.42C242.229 18.34 242.189 18.2267 242.216 18.08C242.216 18.04 242.229 17.9667 242.256 17.86H242.216C241.776 17.86 241.556 17.7467 241.556 17.52C241.556 17.3733 241.649 17.2133 241.836 17.04C242.023 16.8667 242.236 16.7267 242.476 16.62C242.889 14.3667 243.316 12.2867 243.756 10.38C244.196 8.46 244.709 6.61333 245.296 4.84L245.136 4.86C244.976 4.86 244.849 4.82 244.756 4.74C244.676 4.66 244.636 4.56 244.636 4.44C244.636 4.28 244.703 4.12 244.836 3.96C244.969 3.8 245.149 3.68 245.376 3.6L245.756 3.48L245.856 3.22C245.923 3.02 246.103 2.85333 246.396 2.72C246.689 2.57333 246.983 2.5 247.276 2.5C247.663 2.5 247.876 2.62667 247.916 2.88C249.503 2.50667 250.976 2.32 252.336 2.32C253.243 2.32 254.136 2.4 255.016 2.56Z" fill="black"/>
</svg>
