<svg width="523" height="140" viewBox="0 0 523 140" fill="none" xmlns="http://www.w3.org/2000/svg">
<path d="M42.1973 1.14844V39H31.7881V20.6309L24.1621 29.2588H21.0449L13.4189 20.6309V39H3.00977V1.14844H6.68359L22.6035 17.291L38.5234 1.14844H42.1973ZM85.3926 1.59375V24.249C85.3926 27.4775 84.6318 30.2607 83.1104 32.5986C81.5889 34.9365 79.5479 36.7363 76.9873 37.998C74.4639 39.2227 71.6436 39.835 68.5264 39.835C65.4463 39.835 62.626 39.2227 60.0654 37.998C57.5049 36.7363 55.4639 34.9365 53.9424 32.5986C52.4209 30.2607 51.6602 27.4775 51.6602 24.249V1.59375H62.0693V23.5254C62.0693 25.4551 62.5889 27.0508 63.6279 28.3125C64.667 29.5371 66.2998 30.1309 68.5264 30.0938C70.7529 30.0566 72.3857 29.4443 73.4248 28.2568C74.4639 27.0322 74.9834 25.4551 74.9834 23.5254V1.59375H85.3926ZM110.831 1.70508C112.724 1.70508 114.561 1.96484 116.342 2.48438C118.16 3.00391 119.793 3.80176 121.24 4.87793C122.688 5.9541 123.838 7.30859 124.691 8.94141C125.582 10.5742 126.027 12.4854 126.027 14.6748C126.027 17.458 125.229 19.7588 123.634 21.5771C122.075 23.3955 120.071 24.6387 117.622 25.3066L127.92 39H115.229L105.265 24.1934V39H94.8555V1.70508H110.831ZM105.265 11.4463V18.4043C105.896 18.627 106.563 18.8125 107.269 18.9609C108.011 19.1094 108.79 19.1836 109.606 19.1836C111.239 19.1836 112.594 18.8682 113.67 18.2373C114.783 17.5693 115.34 16.5674 115.34 15.2314C115.34 13.71 114.783 12.708 113.67 12.2256C112.594 11.7061 111.239 11.4463 109.606 11.4463H105.265ZM148.961 0.814453C152.672 0.814453 156.03 1.55664 159.036 3.04102C162.042 4.52539 164.436 6.67773 166.217 9.49805C167.998 12.3184 168.889 15.7324 168.889 19.7402C168.889 22.4863 168.425 25.084 167.497 27.5332C166.606 29.9453 165.326 32.0791 163.656 33.9346C161.986 35.79 159.982 37.2373 157.645 38.2764C155.307 39.3154 152.69 39.835 149.796 39.835C148.089 39.835 146.271 39.7607 144.341 39.6123C142.448 39.501 140.593 39.3154 138.774 39.0557C136.956 38.833 135.286 38.5732 133.765 38.2764V2.37305C136.14 1.96484 138.645 1.6123 141.279 1.31543C143.951 0.981445 146.512 0.814453 148.961 0.814453ZM149.295 10.5557C148.441 10.5557 147.551 10.6299 146.623 10.7783C145.732 10.8896 144.916 11.0381 144.174 11.2236V29.4258C145.027 29.6855 145.899 29.8711 146.79 29.9824C147.681 30.0566 148.516 30.0938 149.295 30.0938C151.188 30.0938 152.783 29.667 154.082 28.8135C155.418 27.9229 156.438 26.7354 157.144 25.251C157.849 23.7666 158.201 22.1152 158.201 20.2969C158.201 17.4023 157.422 15.0645 155.863 13.2832C154.342 11.4648 152.152 10.5557 149.295 10.5557ZM190.264 1.14844L207.52 39H195.385L193.548 33.9902H181.747L179.91 39H167.775L185.031 1.14844H190.264ZM187.647 17.959L184.809 25.6406H190.486L187.647 17.959ZM244.759 0.814453C247.839 0.814453 250.511 1.27832 252.774 2.20605C255.075 3.09668 256.856 4.3584 258.118 5.99121C259.417 7.62402 260.066 9.5166 260.066 11.6689C260.066 13.5615 259.603 15.1943 258.675 16.5674C257.784 17.9404 256.615 19.0352 255.168 19.8516C256.318 20.2598 257.395 20.7979 258.396 21.4658C259.398 22.0967 260.196 22.9316 260.79 23.9707C261.421 25.0098 261.736 26.3643 261.736 28.0342C261.736 30.1123 261.068 32.0605 259.732 33.8789C258.396 35.6602 256.56 37.1074 254.222 38.2207C251.884 39.2969 249.212 39.835 246.206 39.835C244.499 39.835 242.588 39.7422 240.473 39.5566C238.357 39.4082 236.335 39.2041 234.405 38.9443C232.513 38.6846 230.973 38.4248 229.785 38.165V2.26172C232.049 1.81641 234.442 1.46387 236.966 1.2041C239.489 0.944336 242.087 0.814453 244.759 0.814453ZM245.148 10.2217C243.256 10.2217 241.604 10.3701 240.194 10.667V17.0684H245.427C246.651 17.0684 247.69 16.7715 248.544 16.1777C249.397 15.584 249.824 14.7119 249.824 13.5615C249.824 12.5596 249.379 11.7617 248.488 11.168C247.635 10.5371 246.521 10.2217 245.148 10.2217ZM240.194 29.9824C240.974 30.2422 241.901 30.4277 242.978 30.5391C244.054 30.6133 244.889 30.6504 245.482 30.6504C247.004 30.6504 248.229 30.3535 249.156 29.7598C250.121 29.166 250.604 28.2939 250.604 27.1436C250.604 26.0303 250.065 25.2324 248.989 24.75C247.913 24.2676 246.614 24.0264 245.093 24.0264H240.194V29.9824ZM294.188 16.2334V24.0264H279.382V30.0938H296.137V39H268.973V1.70508H296.137V10.333H279.382V16.2334H294.188ZM323.635 1.14844L340.891 39H328.756L326.919 33.9902H315.118L313.281 39H301.146L318.402 1.14844H323.635ZM321.019 17.959L318.18 25.6406H323.857L321.019 17.959ZM371.283 1.70508V10.8896H360.317V38.833H349.908V10.8896H338.942V1.70508H371.283ZM408.801 1.70508V3.70898L392.937 29.8154H408.801V39H376.015V36.9961L391.823 10.8896H377.239V1.70508H408.801ZM418.82 0.703125L426.725 2.26172L420.602 15.4541L413.811 14.5635L418.82 0.703125ZM19.5977 50.8701C22.1211 50.8701 24.5332 51.3154 26.834 52.2061C29.1719 53.0596 31.25 54.3213 33.0684 55.9912C34.8867 57.6611 36.3154 59.7021 37.3545 62.1143C38.4307 64.5264 38.9688 67.2725 38.9688 70.3525C38.9688 74.6572 37.9668 78.3125 35.9629 81.3184C33.959 84.2871 31.417 86.4951 28.3369 87.9424C29.9326 88.833 31.7324 89.3711 33.7363 89.5566C35.7773 89.7422 37.874 89.835 40.0264 89.835V98.5186C37.7998 98.5186 35.4248 98.2031 32.9014 97.5723C30.3779 96.9785 27.9473 96.0322 25.6094 94.7334C23.3086 93.4346 21.3047 91.8018 19.5977 89.835C17.0742 89.835 14.6436 89.4082 12.3057 88.5547C10.0049 87.6641 7.94531 86.3838 6.12695 84.7139C4.30859 83.0439 2.86133 81.0029 1.78516 78.5908C0.746094 76.1787 0.226562 73.4326 0.226562 70.3525C0.226562 67.2725 0.746094 64.5264 1.78516 62.1143C2.86133 59.7021 4.30859 57.6611 6.12695 55.9912C7.94531 54.3213 10.0049 53.0596 12.3057 52.2061C14.6436 51.3154 17.0742 50.8701 19.5977 50.8701ZM19.5977 60.6113C17.9277 60.6113 16.4434 61.0381 15.1445 61.8916C13.8457 62.7451 12.8066 63.9141 12.0273 65.3984C11.2852 66.8457 10.9141 68.4971 10.9141 70.3525C10.9141 72.208 11.2852 73.8779 12.0273 75.3623C12.8066 76.8096 13.8457 77.96 15.1445 78.8135C16.4434 79.667 17.9277 80.0938 19.5977 80.0938C21.2676 80.0938 22.752 79.667 24.0508 78.8135C25.3867 77.96 26.4258 76.8096 27.168 75.3623C27.9102 73.8779 28.2812 72.208 28.2812 70.3525C28.2812 68.4971 27.9102 66.8457 27.168 65.3984C26.4258 63.9141 25.3867 62.7451 24.0508 61.8916C22.752 61.0381 21.2676 60.6113 19.5977 60.6113ZM81.5518 51.5938V74.249C81.5518 77.4775 80.791 80.2607 79.2695 82.5986C77.748 84.9365 75.707 86.7363 73.1465 87.998C70.623 89.2227 67.8027 89.835 64.6855 89.835C61.6055 89.835 58.7852 89.2227 56.2246 87.998C53.6641 86.7363 51.623 84.9365 50.1016 82.5986C48.5801 80.2607 47.8193 77.4775 47.8193 74.249V51.5938H58.2285V73.5254C58.2285 75.4551 58.748 77.0508 59.7871 78.3125C60.8262 79.5371 62.459 80.1309 64.6855 80.0938C66.9121 80.0566 68.5449 79.4443 69.584 78.2568C70.623 77.0322 71.1426 75.4551 71.1426 73.5254V51.5938H81.5518ZM109.05 51.1484L126.306 89H114.171L112.334 83.9902H100.533L98.6963 89H86.5615L103.817 51.1484H109.05ZM106.434 67.959L103.595 75.6406H109.272L106.434 67.959ZM147.848 51.7051C149.74 51.7051 151.577 51.9648 153.358 52.4844C155.177 53.0039 156.81 53.8018 158.257 54.8779C159.704 55.9541 160.854 57.3086 161.708 58.9414C162.599 60.5742 163.044 62.4854 163.044 64.6748C163.044 67.458 162.246 69.7588 160.65 71.5771C159.092 73.3955 157.088 74.6387 154.639 75.3066L164.937 89H152.245L142.281 74.1934V89H131.872V51.7051H147.848ZM142.281 61.4463V68.4043C142.912 68.627 143.58 68.8125 144.285 68.9609C145.027 69.1094 145.807 69.1836 146.623 69.1836C148.256 69.1836 149.61 68.8682 150.687 68.2373C151.8 67.5693 152.356 66.5674 152.356 65.2314C152.356 63.71 151.8 62.708 150.687 62.2256C149.61 61.7061 148.256 61.4463 146.623 61.4463H142.281ZM188.816 51.1484L206.072 89H193.938L192.101 83.9902H180.3L178.463 89H166.328L183.584 51.1484H188.816ZM186.2 67.959L183.361 75.6406H189.039L186.2 67.959ZM245.705 51.7051V89.5566H242.031L222.048 70.6865V89H211.639V51.1484H215.312L235.296 70.3525V51.7051H245.705ZM284.447 51.7051V60.8896H273.481V88.833H263.072V60.8896H252.106V51.7051H284.447ZM313.281 79.8154V89H290.292V79.8154H296.582V60.8896H290.292V51.7051H313.281V60.8896H306.991V79.8154H313.281ZM356.811 51.7051V89.5566H353.137L333.153 70.6865V89H322.744V51.1484H326.418L346.401 70.3525V51.7051H356.811ZM392.046 66.2334V74.0264H377.239V80.0938H393.994V89H366.83V51.7051H393.994V60.333H377.239V66.2334H392.046ZM430.565 51.7051V65.3984L441.977 51.7051H454.501L441.03 67.0127L456.171 89H442.923L433.961 74.9727L430.565 78.8135V89H420.156V51.7051H430.565ZM484.727 79.8154V89H461.737V79.8154H468.027V60.8896H461.737V51.7051H484.727V60.8896H478.437V79.8154H484.727ZM522.912 51.7051V60.8896H511.946V88.833H501.537V60.8896H490.571V51.7051H522.912ZM14.3096 100.87C16.499 100.87 18.6514 101.148 20.7666 101.705C22.9189 102.225 24.6445 102.93 25.9434 103.82V113.896C24.3477 112.968 22.7705 112.17 21.2119 111.502C19.6533 110.797 17.8164 110.444 15.7012 110.444C14.4766 110.444 13.4189 110.63 12.5283 111.001C11.6377 111.372 11.1924 111.984 11.1924 112.838C11.1924 113.766 11.7305 114.471 12.8066 114.953C13.8828 115.398 15.2002 115.918 16.7588 116.512L20.7666 118.015C23.4756 119.054 25.3867 120.464 26.5 122.245C27.6504 124.026 28.2256 125.808 28.2256 127.589C28.2256 129.964 27.5391 132.079 26.166 133.935C24.793 135.753 22.9375 137.2 20.5996 138.276C18.2617 139.315 15.6455 139.835 12.751 139.835C10.5244 139.835 8.31641 139.445 6.12695 138.666C3.9375 137.887 2.02637 136.922 0.393555 135.771V125.696C2.1748 127.032 4.08594 128.127 6.12695 128.98C8.20508 129.834 10.2832 130.261 12.3613 130.261C13.6602 130.261 14.6992 130.112 15.4785 129.815C16.2949 129.481 16.7031 128.925 16.7031 128.146C16.7031 127.589 16.4062 127.106 15.8125 126.698C15.2188 126.29 14.4209 125.938 13.4189 125.641L8.13086 123.971C6.05273 123.303 4.43848 122.394 3.28809 121.243C2.1377 120.093 1.33984 118.812 0.894531 117.402C0.449219 115.955 0.226562 114.489 0.226562 113.005C0.226562 110.37 0.894531 108.162 2.23047 106.381C3.56641 104.562 5.31055 103.189 7.46289 102.262C9.61523 101.334 11.8975 100.87 14.3096 100.87ZM52.9404 101.148L70.1963 139H58.0615L56.2246 133.99H44.4238L42.5869 139H30.4521L47.708 101.148H52.9404ZM50.3242 117.959L47.4854 125.641H53.1631L50.3242 117.959ZM114.95 101.148V139H104.541V120.631L96.915 129.259H93.7979L86.1719 120.631V139H75.7627V101.148H79.4365L95.3564 117.291L111.276 101.148H114.95ZM140.389 101.705C142.281 101.705 144.118 102.021 145.899 102.651C147.718 103.282 149.351 104.21 150.798 105.435C152.245 106.659 153.396 108.144 154.249 109.888C155.14 111.632 155.585 113.599 155.585 115.788C155.585 118.646 154.917 121.113 153.581 123.191C152.245 125.232 150.501 126.791 148.349 127.867C146.196 128.943 143.914 129.481 141.502 129.481C140.092 129.481 138.83 129.352 137.717 129.092C136.604 128.795 135.639 128.424 134.822 127.979V139H124.413V101.705H140.389ZM134.822 111.446V120.074C135.453 120.297 136.121 120.482 136.826 120.631C137.568 120.779 138.348 120.854 139.164 120.854C140.797 120.854 142.151 120.353 143.228 119.351C144.341 118.312 144.897 117.124 144.897 115.788C144.897 114.267 144.341 113.172 143.228 112.504C142.151 111.799 140.797 111.446 139.164 111.446H134.822ZM172.674 101.705V129.815H189.429V139H162.265V101.705H172.674ZM222.994 116.233V124.026H208.188V130.094H224.942V139H197.778V101.705H224.942V110.333H208.188V116.233H222.994ZM266.523 101.705C268.416 101.705 270.253 102.021 272.034 102.651C273.853 103.282 275.485 104.21 276.933 105.435C278.38 106.659 279.53 108.144 280.384 109.888C281.274 111.632 281.72 113.599 281.72 115.788C281.72 118.646 281.052 121.113 279.716 123.191C278.38 125.232 276.636 126.791 274.483 127.867C272.331 128.943 270.049 129.481 267.637 129.481C266.227 129.481 264.965 129.352 263.852 129.092C262.738 128.795 261.773 128.424 260.957 127.979V139H250.548V101.705H266.523ZM260.957 111.446V120.074C261.588 120.297 262.256 120.482 262.961 120.631C263.703 120.779 264.482 120.854 265.299 120.854C266.932 120.854 268.286 120.353 269.362 119.351C270.476 118.312 271.032 117.124 271.032 115.788C271.032 114.267 270.476 113.172 269.362 112.504C268.286 111.799 266.932 111.446 265.299 111.446H260.957ZM302.538 101.148L319.794 139H307.659L305.822 133.99H294.021L292.185 139H280.05L297.306 101.148H302.538ZM299.922 117.959L297.083 125.641H302.761L299.922 117.959ZM340.668 100.87C342.635 100.87 344.453 101.148 346.123 101.705C347.793 102.262 349.259 103.078 350.521 104.154V114.229C349.036 113.042 347.626 112.151 346.29 111.558C344.954 110.927 343.21 110.611 341.058 110.611C339.388 110.611 337.829 111.038 336.382 111.892C334.972 112.745 333.821 113.914 332.931 115.398C332.04 116.846 331.595 118.497 331.595 120.353C331.595 122.208 332.04 123.878 332.931 125.362C333.821 126.81 334.972 127.96 336.382 128.813C337.829 129.667 339.388 130.094 341.058 130.094C343.21 130.094 344.954 129.797 346.29 129.203C347.626 128.572 349.036 127.663 350.521 126.476V136.551C349.259 137.627 347.793 138.443 346.123 139C344.453 139.557 342.635 139.835 340.668 139.835C338.145 139.835 335.695 139.408 333.32 138.555C330.982 137.664 328.867 136.384 326.975 134.714C325.119 133.044 323.635 131.003 322.521 128.591C321.445 126.179 320.907 123.433 320.907 120.353C320.907 117.272 321.445 114.526 322.521 112.114C323.635 109.702 325.119 107.661 326.975 105.991C328.867 104.321 330.982 103.06 333.32 102.206C335.695 101.315 338.145 100.87 340.668 100.87ZM368.166 101.705V115.398L379.577 101.705H392.102L378.631 117.013L393.771 139H380.523L371.562 124.973L368.166 128.813V139H357.757V101.705H368.166Z" fill="black"/>
</svg>
